<svg xmlns="http://www.w3.org/2000/svg" width="1200" height="680" viewBox="0 0 1200 680">
<style>
text { font-family: Arial, Helvetica, sans-serif; fill: #1f2937; }
.title { font-size: 26px; font-weight: 700; }
.subtitle { font-size: 14px; fill: #64748b; }
.section { font-size: 18px; font-weight: 700; }
.axis { font-size: 12px; fill: #64748b; }
.value { font-size: 13px; font-weight: 700; }
.grid { stroke: #e2e8f0; stroke-width: 1; }
</style>
<rect x="0" y="0" width="1200" height="680" fill="none"/>
<text x="600.0" y="44" text-anchor="middle" class="title">Manual Judgment Evaluation</text>
<text x="600.0" y="70" text-anchor="middle" class="subtitle">NDCG@10 and average response time based on pooled human labels</text>
<text x="120" y="82" class="section">NDCG@10</text><line x1="120" y1="310.0" x2="1060" y2="310.0" class="grid"/><text x="104" y="315.0" text-anchor="end" class="axis">0.00</text><line x1="120" y1="262.5" x2="1060" y2="262.5" class="grid"/><text x="104" y="267.5" text-anchor="end" class="axis">0.25</text><line x1="120" y1="215.0" x2="1060" y2="215.0" class="grid"/><text x="104" y="220.0" text-anchor="end" class="axis">0.50</text><line x1="120" y1="167.5" x2="1060" y2="167.5" class="grid"/><text x="104" y="172.5" text-anchor="end" class="axis">0.75</text><line x1="120" y1="120.0" x2="1060" y2="120.0" class="grid"/><text x="104" y="125.0" text-anchor="end" class="axis">1.00</text><rect x="159.0" y="146.8" width="110" height="163.2" rx="10" fill="#0b6e4f"/><text x="214.0" y="136.8" text-anchor="middle" class="value">0.8589</text><text x="214.0" y="340" text-anchor="middle" class="axis">baseline</text><rect x="347.0" y="174.3" width="110" height="135.7" rx="10" fill="#7c3aed"/><text x="402.0" y="164.3" text-anchor="middle" class="value">0.7141</text><text x="402.0" y="340" text-anchor="middle" class="axis">ltr</text><rect x="535.0" y="141.5" width="110" height="168.5" rx="10" fill="#2563eb"/><text x="590.0" y="131.5" text-anchor="middle" class="value">0.8866</text><text x="590.0" y="340" text-anchor="middle" class="axis">adaptive</text><rect x="723.0" y="171.1" width="110" height="138.9" rx="10" fill="#d97706"/><text x="778.0" y="161.1" text-anchor="middle" class="value">0.7308</text><text x="778.0" y="340" text-anchor="middle" class="axis">hybrid</text><rect x="911.0" y="141.7" width="110" height="168.3" rx="10" fill="#e11d48"/><text x="966.0" y="131.7" text-anchor="middle" class="value">0.8857</text><text x="966.0" y="340" text-anchor="middle" class="axis">cross-encoder</text>
<text x="120" y="342" class="section">Average Response Time (ms)</text><line x1="120" y1="570.0" x2="1060" y2="570.0" class="grid"/><text x="104" y="575.0" text-anchor="end" class="axis">0.00</text><line x1="120" y1="522.5" x2="1060" y2="522.5" class="grid"/><text x="104" y="527.5" text-anchor="end" class="axis">28.38</text><line x1="120" y1="475.0" x2="1060" y2="475.0" class="grid"/><text x="104" y="480.0" text-anchor="end" class="axis">56.75</text><line x1="120" y1="427.5" x2="1060" y2="427.5" class="grid"/><text x="104" y="432.5" text-anchor="end" class="axis">85.13</text><line x1="120" y1="380.0" x2="1060" y2="380.0" class="grid"/><text x="104" y="385.0" text-anchor="end" class="axis">113.51</text><rect x="159.0" y="538.3" width="110" height="31.7" rx="10" fill="#0b6e4f"/><text x="214.0" y="528.3" text-anchor="middle" class="value">18.9</text><text x="214.0" y="600" text-anchor="middle" class="axis">baseline</text><rect x="347.0" y="519.5" width="110" height="50.5" rx="10" fill="#7c3aed"/><text x="402.0" y="509.5" text-anchor="middle" class="value">30.2</text><text x="402.0" y="600" text-anchor="middle" class="axis">ltr</text><rect x="535.0" y="510.4" width="110" height="59.6" rx="10" fill="#2563eb"/><text x="590.0" y="500.4" text-anchor="middle" class="value">35.6</text><text x="590.0" y="600" text-anchor="middle" class="axis">adaptive</text><rect x="723.0" y="397.3" width="110" height="172.7" rx="10" fill="#d97706"/><text x="778.0" y="387.3" text-anchor="middle" class="value">103.2</text><text x="778.0" y="600" text-anchor="middle" class="axis">hybrid</text><rect x="911.0" y="420.3" width="110" height="149.7" rx="10" fill="#e11d48"/><text x="966.0" y="410.3" text-anchor="middle" class="value">89.4</text><text x="966.0" y="600" text-anchor="middle" class="axis">cross-encoder</text>
</svg>