<svg xmlns="http://www.w3.org/2000/svg" width="1200" height="760" viewBox="0 0 1200 760">
<style>
text { font-family: -apple-system, BlinkMacSystemFont, 'Segoe UI', 'PingFang SC', 'Hiragino Sans GB', 'Microsoft YaHei', sans-serif; fill:#1f2a37; }
.small { font-size:14px; fill:#5f6a75; }
.label { font-size:16px; }
.title { font-size:28px; font-weight:700; }
.subtitle { font-size:15px; fill:#5f6a75; }
.axis { stroke:#cbd5e1; stroke-width:1; }
.grid { stroke:#e5e7eb; stroke-width:1; }
</style>
<rect x="0" y="0" width="1200" height="760" fill="#fffdfa"/><text x="60" y="60" class="title">各维度满意度均分</text><text x="60" y="92" class="subtitle">5分制，整体均分 3.68</text><line x1="70" y1="544.0" x2="1130" y2="544.0" class="grid"/><text x="40" y="549.0" class="small">1</text><line x1="70" y1="458.0" x2="1130" y2="458.0" class="grid"/><text x="40" y="463.0" class="small">2</text><line x1="70" y1="372.0" x2="1130" y2="372.0" class="grid"/><text x="40" y="377.0" class="small">3</text><line x1="70" y1="286.0" x2="1130" y2="286.0" class="grid"/><text x="40" y="291.0" class="small">4</text><line x1="70" y1="200.0" x2="1130" y2="200.0" class="grid"/><text x="40" y="205.0" class="small">5</text><rect x="90" y="297.2" width="120" height="332.8" rx="14" fill="#0b6e4f"/><text x="150.0" y="285.2" text-anchor="middle" class="label">3.87</text><text x="150.0" y="660" text-anchor="middle" class="small">易用性</text><rect x="265" y="321.1" width="120" height="308.9" rx="14" fill="#1d8a70"/><text x="325.0" y="309.1" text-anchor="middle" class="label">3.59</text><text x="325.0" y="660" text-anchor="middle" class="small">相关性与排</text><text x="325.0" y="680" text-anchor="middle" class="small">序</text><rect x="440" y="308.9" width="120" height="321.1" rx="14" fill="#d97706"/><text x="500.0" y="296.9" text-anchor="middle" class="label">3.73</text><text x="500.0" y="660" text-anchor="middle" class="small">性能体验</text><rect x="615" y="327.0" width="120" height="303.0" rx="14" fill="#0f766e"/><text x="675.0" y="315.0" text-anchor="middle" class="label">3.52</text><text x="675.0" y="660" text-anchor="middle" class="small">结果展示</text><rect x="790" y="323.5" width="120" height="306.5" rx="14" fill="#b45309"/><text x="850.0" y="311.5" text-anchor="middle" class="label">3.56</text><text x="850.0" y="660" text-anchor="middle" class="small">总体满意度</text><rect x="965" y="304.1" width="120" height="325.9" rx="14" fill="#334155"/><text x="1025.0" y="292.1" text-anchor="middle" class="label">3.79</text><text x="1025.0" y="660" text-anchor="middle" class="small">自适应策略</text><text x="1025.0" y="680" text-anchor="middle" class="small">认可</text><line x1="70" y1="630" x2="1130" y2="630" class="axis"/>
</svg>